Coordinates
version=1
nRows=25
nColumns=28
inDegrees=yes

Units are S.I. units (second, meters, Newtons, ...)
Angles are in degrees.

endheader
time	pelvis_tilt	pelvis_list	pelvis_rotation	pelvis_tx	pelvis_ty	pelvis_tz	hip_flexion_r	hip_adduction_r	hip_rotation_r	knee_angle_r	ankle_angle_r	subtalar_angle_r	mtp_angle_r	hip_flexion_l	hip_adduction_l	hip_rotation_l	knee_angle_l	socket_flexion	socket_adduction	socket_rotation	socket_tx	socket_ty	socket_tz	foot_flex	lumbar_extension	lumbar_bending	lumbar_rotation
      0.31250000	      0.91540002	     -0.56558304	     -4.25826910	     -0.42907228	      1.02853838	      0.25159968	     14.96148193	      0.09463191	     -3.62023688	    -66.30771928	      8.61462824	    -14.47478782	     -3.01099066	     -2.85140890	      0.49132828	      9.65341673	      6.30483447	      9.05995982	      0.00000000	      0.00000000	      0.00000000	     -0.00650737	      0.00000000	     -0.11282393	     -9.98821357	     -2.02551953	      2.86128917
      0.31666667	      1.11355472	     -0.68671255	     -4.07911222	     -0.42377711	      1.02931088	      0.25140791	     15.27139940	      0.13612641	     -3.84515634	    -65.97172955	      9.75458090	    -13.60835629	     -5.53308072	     -3.49472988	      0.37113234	      9.78838259	      6.57833067	      9.17328463	      0.00000000	      0.00000000	      0.00000000	     -0.00615625	      0.00000000	      0.05193048	    -10.24464874	     -1.86060516	      2.61194247
      0.32083333	      1.09213661	     -0.85024494	     -3.90274130	     -0.41849219	      1.02973122	      0.25122943	     15.80376582	      0.26181333	     -4.04462465	    -65.56377826	     10.19979601	    -13.16831161	     -5.42952298	     -3.85287326	      0.18712995	      9.94752837	      6.71228311	      9.20866133	      0.00000000	      0.00000000	      0.00000000	     -0.00606506	      0.00000000	      0.16381759	    -10.23437090	     -1.62466399	      2.44223051
      0.32500000	      1.15126434	     -0.86202100	     -3.84262216	     -0.41360402	      1.03023742	      0.25130019	     16.33896569	      0.25790748	     -4.08554546	    -65.20933834	     10.26653525	    -13.15847432	     -5.41628211	     -4.14200000	      0.20189108	      9.94733060	      6.45384579	      8.96587060	      0.00000000	      0.00000000	      0.00000000	     -0.00585783	      0.00000000	      0.19232988	    -10.35622533	     -1.62022012	      2.43550748
      0.32916667	      1.09085070	     -1.07496894	     -3.59285373	     -0.40806567	      1.03063337	      0.25107538	     16.78981891	      0.44220870	     -4.33385064	    -64.60357587	     10.99516883	    -12.82751084	     -5.25380379	     -4.51954007	     -0.05396645	     10.14279238	      6.73429436	      9.12923916	      0.00000000	      0.00000000	      0.00000000	     -0.00562934	      0.00000000	      0.52800185	    -10.26252903	     -1.34041977	      2.31826182
      0.33333333	      1.08464968	     -1.35885198	     -3.35178972	     -0.40272948	      1.03093599	      0.25073203	     17.23047954	      0.63624405	     -4.66260493	    -64.03712776	     11.52519360	    -12.08744605	     -5.15439125	     -4.98332365	     -0.39138859	     10.39924614	      7.13217730	      9.31431224	      0.00000000	      0.00000000	      0.00000000	     -0.00570564	      0.00000000	      0.48710316	    -10.28047573	     -0.92506872	      2.03221370
      0.33750000	      1.12806221	     -1.41302748	     -3.22238260	     -0.39754803	      1.03140392	      0.25069655	     17.65360228	      0.64892152	     -4.79068556	    -63.45323189	     11.78644426	    -11.91816598	     -5.13394492	     -5.35052684	     -0.44387121	     10.47120121	      7.10364754	      9.24502222	      0.00000000	      0.00000000	      0.00000000	     -0.00544557	      0.00000000	      0.67563053	    -10.35067584	     -0.86514407	      1.92403103
      0.34166667	      1.16333722	     -1.64039432	     -2.98596920	     -0.39231455	      1.03173094	      0.25047833	     18.03658392	      0.80300598	     -5.08369433	    -62.82996363	     12.30527655	    -11.47688070	     -5.10036247	     -5.82850133	     -0.72376276	     10.68352738	      7.44736990	      9.40947668	      0.00000000	      0.00000000	      0.00000000	     -0.00537343	      0.00000000	      0.75344141	    -10.40740105	     -0.54536994	      1.69827756
      0.34583333	      1.19653634	     -1.65396183	     -2.86713092	     -0.38734379	      1.03213786	      0.25047599	     18.46266558	      0.79596278	     -5.13192310	    -62.17542732	     12.44420686	    -11.40564072	     -5.09979594	     -6.10964087	     -0.71983395	     10.68695044	      7.27781253	      9.26789040	      0.00000000	      0.00000000	      0.00000000	     -0.00514538	      0.00000000	      0.84480409	    -10.49021377	     -0.52995501	      1.65403943
      0.35000000	      1.21926785	     -1.93902040	     -2.60751274	     -0.38194949	      1.03241901	      0.25023812	     18.78928949	      0.98886551	     -5.50182954	    -61.42118071	     12.99160855	    -11.00526942	     -5.10893902	     -6.61693197	     -1.08492128	     10.96988634	      7.69684836	      9.46542964	      0.00000000	      0.00000000	      0.00000000	     -0.00507660	      0.00000000	      1.00347837	    -10.50590338	     -0.13559707	      1.39982876
      0.35416667	      1.35929968	     -2.13622149	     -2.37070695	     -0.37674459	      1.03291768	      0.25004220	     18.98502316	      1.10738773	     -5.77352883	    -60.59987973	     13.31681228	    -10.68114776	     -5.29096044	     -7.13481168	     -1.31890086	     11.13194319	      7.82400175	      9.47662527	      0.00000000	      0.00000000	      0.00000000	     -0.00498119	      0.00000000	      1.07920082	    -10.68281846	      0.14472456	      1.10310800
      0.35833333	      1.42656857	     -2.26639278	     -2.16458687	     -0.37161848	      1.03328564	      0.24994262	     19.27761137	      1.18125865	     -5.98551007	    -59.78555246	     13.63972849	    -10.57383412	     -5.48027837	     -7.55941940	     -1.48524389	     11.27334776	      7.93672006	      9.49379096	      0.00000000	      0.00000000	      0.00000000	     -0.00477011	      0.00000000	      1.20495248	    -10.78398839	      0.32411790	      0.94736619
      0.36250000	      1.47339720	     -2.42285995	     -1.96762534	     -0.36646969	      1.03358264	      0.24985623	     19.56945209	      1.28606116	     -6.19964732	    -58.92289421	     13.92575252	    -10.48332802	     -5.72207198	     -7.95997309	     -1.68041469	     11.40762751	      8.02668619	      9.49780976	      0.00000000	      0.00000000	      0.00000000	     -0.00465642	      0.00000000	      1.32813363	    -10.85729835	      0.53143627	      0.78003833
      0.36666667	      1.49319813	     -2.53018595	     -1.79150030	     -0.36134632	      1.03379497	      0.24984351	     19.89634422	      1.35181622	     -6.37700175	    -58.05797289	     14.19659234	    -10.48668793	     -5.88469088	     -8.33057933	     -1.82701177	     11.52691289	      8.12403282	      9.51013543	      0.00000000	      0.00000000	      0.00000000	     -0.00448418	      0.00000000	      1.47725545	    -10.90184223	      0.67407692	      0.67350937
      0.37083333	      1.51002040	     -2.67182545	     -1.60074932	     -0.35618080	      1.03402031	      0.24978187	     20.18216278	      1.44413302	     -6.58482890	    -57.10237820	     14.42233476	    -10.50020370	     -6.09966394	     -8.69941473	     -2.01212330	     11.65671107	      8.21726064	      9.51638585	      0.00000000	      0.00000000	      0.00000000	     -0.00434737	      0.00000000	      1.59008748	    -10.93573645	      0.86399774	      0.52365020
      0.37500000	      1.50793294	     -2.72926962	     -1.44252270	     -0.35113804	      1.03415149	      0.24985232	     20.51802809	      1.47442660	     -6.71934534	    -56.18169707	     14.60997749	    -10.55716792	     -6.23023117	     -9.02076092	     -2.10280147	     11.74090590	      8.27040895	      9.51749887	      0.00000000	      0.00000000	      0.00000000	     -0.00413429	      0.00000000	      1.72469077	    -10.97257819	      0.94390045	      0.43681552
      0.37916667	      1.48971038	     -2.72448394	     -1.33504989	     -0.34607445	      1.03425129	      0.24997825	     20.85344846	      1.43964197	     -6.80728357	    -55.21507054	     14.75314362	    -10.60719760	     -6.28521896	     -9.29728541	     -2.10679811	     11.75716657	      8.21188081	      9.42501138	      0.00000000	      0.00000000	      0.00000000	     -0.00388156	      0.00000000	      1.82445512	    -10.97644503	      0.92950653	      0.39285469
      0.38333333	      1.49775419	     -3.02862137	     -1.02657472	     -0.34089298	      1.03434124	      0.24974144	     21.05746301	      1.67521980	     -7.17589292	    -54.09091091	     14.98657457	    -10.83901989	     -6.58005005	     -9.70113511	     -2.51218791	     12.02382876	      8.47812298	      9.55663371	      0.00000000	      0.00000000	      0.00000000	     -0.00394948	      0.00000000	      1.96160130	    -11.01276746	      1.34508041	      0.16714414
      0.38750000	      1.65643237	     -3.19947431	     -0.82124963	     -0.33583737	      1.03469759	      0.24973114	     21.11744836	      1.81994926	     -7.37736592	    -52.98053755	     15.78855401	    -10.84875504	     -9.82148792	    -10.20193226	     -2.73455907	     12.11975594	      8.53183428	      9.52256763	      0.00000000	      0.00000000	      0.00000000	     -0.00379227	      0.00000000	      2.08160374	    -11.24129543	      1.58367954	     -0.10969876
      0.39166667	      1.60897318	     -3.12766121	     -0.73531468	     -0.33097221	      1.03464273	      0.24990212	     21.48411876	      1.71387649	     -7.45382917	    -51.96672400	     15.90194934	    -10.90611676	     -9.82673233	    -10.41045265	     -2.65844788	     12.07582363	      8.42778296	      9.45048124	      0.00000000	      0.00000000	      0.00000000	     -0.00361500	      0.00000000	      2.16514596	    -11.26790260	      1.49819055	     -0.11402562
      0.39583333	      1.53500022	     -3.36633146	     -0.42818195	     -0.32571336	      1.03455310	      0.24974142	     21.71023966	      1.89132395	     -7.79968880	    -50.69764345	     15.98264460	    -11.33687737	     -9.98410795	    -10.69914925	     -2.99998584	     12.35182209	      8.61954165	      9.52531089	      0.00000000	      0.00000000	      0.00000000	     -0.00360573	      0.00000000	      2.31335582	    -11.18598006	      1.80119258	     -0.28184013
      0.40000000	      1.48074866	     -3.29128875	     -0.36494962	     -0.32066483	      1.03447032	      0.24994103	     22.00941040	      1.79157136	     -7.87111223	    -49.57175450	     16.09102008	    -11.42222695	    -10.01122142	    -10.94126953	     -2.92685603	     12.34211365	      8.56868858	      9.45137573	      0.00000000	      0.00000000	      0.00000000	     -0.00328744	      0.00000000	      2.43060067	    -11.15851577	      1.70831350	     -0.31644422
      0.40416667	      1.41342106	     -3.25090022	     -0.25782954	     -0.31565111	      1.03431673	      0.25011689	     22.30018546	      1.72446703	     -7.97853119	    -48.39428627	     16.21549487	    -11.56217401	    -10.04774835	    -11.17922942	     -2.90892208	     12.37248632	      8.58438423	      9.43676086	      0.00000000	      0.00000000	      0.00000000	     -0.00302951	      0.00000000	      2.55458860	    -11.13819397	      1.65762826	     -0.35218587
      0.40833333	      1.46281006	     -3.63396866	      0.11485965	     -0.31054743	      1.03438731	      0.24986830	     22.28572496	      2.07899973	     -8.34340523	    -46.87135703	     16.04438524	    -12.44543823	    -10.63678262	    -11.57331505	     -3.42960260	     12.69664868	      8.75038174	      9.49919349	      0.00000000	      0.00000000	      0.00000000	     -0.00321123	      0.00000000	      2.69366352	    -11.23432687	      2.19076039	     -0.81551207
      0.41250000	      1.35893461	     -3.55142230	      0.22975239	     -0.30552658	      1.03410650	      0.25008788	     22.59600941	      1.96070233	     -8.46499571	    -45.67220286	     16.19462003	    -12.57581938	    -10.69926142	    -11.77176741	     -3.38327403	     12.79389994	      8.76843623	      9.46712170	      0.00000000	      0.00000000	      0.00000000	     -0.00291173	      0.00000000	      2.82171555	    -11.16298204	      2.08026975	     -0.82702655
